<svg width="924" height="262" viewBox="0 0 924 262" fill="none" xmlns="http://www.w3.org/2000/svg">
<path d="M47.9922 0.907759C29.0923 8.81651 8.30976 31.1363 1.75015 59.2098C-6.57222 94.7491 28.028 109.757 30.855 104.861C34.1815 99.0529 24.6352 97.1036 22.6858 78.6761C20.1776 54.8465 31.2277 28.2229 45.1717 16.5407C47.7727 14.4052 47.6465 17.4188 47.6465 22.974C47.6465 32.9928 47.0877 122.63 47.0877 141.343C47.0877 166.676 46.0499 174.653 44.1339 182.529C42.2509 190.539 39.2043 195.941 41.4995 198.043C44.1005 200.365 55.1506 194.837 61.557 185.896C69.2208 175.185 71.9216 162.312 72.4205 148.342C72.9858 131.517 72.9529 104.767 72.9858 89.5396C72.9858 75.5357 73.2054 34.5959 72.7663 9.94812C72.64 3.92138 55.8755 -2.39225 47.9922 0.907759ZM919.367 133.9C916.666 133.9 915.382 136.727 914.344 141.47C910.765 158.015 907 161.747 902.13 161.747C896.702 161.747 891.832 153.558 890.548 137.166C889.577 124.293 889.73 100.557 890.987 76.9468C891.24 72.1105 889.916 67.3136 876.917 62.5707C871.302 60.5614 863.166 57.5478 859.121 67.3406C847.659 94.9421 843.201 116.916 842.131 125.803C842.106 126.269 841.538 126.336 841.439 125.271C840.787 118.14 839.277 105.173 839.09 77.9182C839.024 72.6494 837.926 68.092 832.025 64.3868C828.227 62.0049 816.671 57.7339 812.493 62.7902C808.914 66.9344 804.743 78.0509 800.379 91.2365C796.86 101.974 794.412 109.258 794.412 109.258C794.412 109.258 794.437 80.3061 794.505 69.3164C794.505 65.1717 791.677 63.7946 790.833 63.5416C786.967 62.411 779.337 60.5614 776.137 60.5614C772.152 60.5614 771.208 62.7902 771.208 66.0234C771.208 66.429 770.549 104.103 770.549 130.447V134.152C768.38 146.273 761.229 162.725 753.472 162.725C745.715 162.725 742.043 155.846 742.043 124.453C742.043 106.145 742.608 98.1753 742.861 84.9234C743.014 77.2925 743.326 71.4249 743.3 70.0748C743.234 66.0234 736.169 63.9478 732.902 63.1959C729.609 62.411 726.749 62.1581 724.493 62.2514C721.353 62.444 719.125 64.5131 719.125 67.407V71.7977C715.073 65.3977 708.507 60.9342 704.116 59.6499C692.375 56.1643 680.094 59.2707 670.833 72.2033C663.489 82.5085 659.058 94.1503 657.335 110.888C656.045 123.135 656.457 135.536 658.746 146.021C655.985 157.855 650.896 162.725 645.341 162.725C637.238 162.725 631.404 149.533 632.063 126.708C632.535 111.707 635.515 101.189 638.808 85.9277C640.225 79.428 639.061 76.0422 636.207 72.7422C633.599 69.7884 628.011 68.2517 620.008 70.1012C614.32 71.4519 606.13 72.8953 598.686 73.9995C598.686 73.9995 599.125 72.2033 599.504 69.037C601.42 52.4252 583.366 53.7758 577.618 59.0846C574.165 62.2514 571.81 65.9899 570.932 72.7092C569.521 83.3866 578.217 88.409 578.217 88.409C575.363 101.468 568.39 118.545 561.139 130.886C557.274 137.512 554.32 142.382 550.495 147.591C550.46 145.675 550.46 143.725 550.46 141.816C550.394 114.341 550.74 92.7134 550.899 84.9234C551.059 77.2925 551.372 71.5781 551.372 70.2275C551.305 67.2737 549.582 66.1162 545.936 64.7326C542.737 63.4818 538.938 62.5707 535.013 62.2514C530.083 61.8787 527.07 64.5131 527.163 67.62V71.7977C523.085 65.3977 516.519 60.9342 512.188 59.6499C500.413 56.1643 488.139 59.2707 478.878 72.2033C471.561 82.5085 466.724 96.918 465.341 110.729C464.09 123.668 464.309 134.591 466.066 143.825C464.183 153.052 458.814 162.725 452.727 162.725C444.97 162.725 440.54 155.846 440.54 124.453C440.54 106.145 441.105 98.1753 441.391 84.9234C441.544 77.2925 441.83 71.4249 441.797 70.0748C441.763 66.0234 434.705 63.9478 431.406 63.1959C427.986 62.3841 424.999 62.1316 422.737 62.2514C419.724 62.5038 417.622 65.1717 417.622 67.2139V71.7977C413.544 65.3977 406.978 60.9342 402.613 59.6499C390.872 56.1643 378.691 59.3375 369.364 72.2033C363.277 80.5925 358.347 89.9128 355.806 110.576C355.114 116.543 354.768 122.125 354.801 127.34C352.38 142.155 341.676 159.239 332.947 159.239C327.798 159.239 322.902 149.314 322.902 128.125C322.902 99.9316 324.658 59.7432 324.971 55.8514C324.971 55.8514 336.021 55.6583 338.19 55.6319C343.685 55.5985 348.707 55.7252 356.025 55.346C359.731 55.1599 363.277 41.9409 359.445 40.2779C357.748 39.5524 345.568 38.8938 340.731 38.801C336.653 38.7077 325.377 37.863 325.377 37.863C325.377 37.863 326.388 11.206 326.608 8.41187C326.794 6.02343 323.78 4.83295 322.024 4.10748C317.779 2.29133 313.981 1.44013 309.524 0.528562C303.277 -0.75522 300.483 0.502118 299.951 5.73753C299.132 13.6872 298.693 36.9849 298.693 36.9849C294.11 36.9849 278.57 36.0668 274.012 36.0668C269.781 36.0668 265.191 54.2812 271.065 54.5008C277.818 54.7537 289.526 55.0067 297.31 55.2193C297.31 55.2193 296.964 96.0728 296.964 108.66V112.551C292.666 134.871 277.625 146.932 277.625 146.932C280.858 132.143 274.265 121.06 262.337 111.707C257.94 108.221 249.278 101.654 239.572 94.5295C239.572 94.5295 245.193 88.9748 250.183 77.8583C253.702 69.975 253.862 60.9072 245.193 58.9249C230.877 55.6319 219.102 66.1496 215.556 77.3858C212.855 86.054 214.272 92.5203 219.634 99.2061L220.858 100.716C217.658 106.93 213.201 115.312 209.462 121.812C199.011 139.867 191.128 154.123 185.194 154.123C180.424 154.123 180.484 139.647 180.484 126.083C180.484 114.401 181.362 96.7912 182.054 78.5833C182.273 72.5825 179.26 69.1298 174.21 66.0234C171.13 64.1404 164.597 60.4352 160.799 60.4352C155.151 60.4352 138.759 61.1866 123.285 105.925C121.335 111.58 117.504 121.845 117.504 121.845L117.85 68.0321C117.85 66.7748 117.191 65.5843 115.654 64.7326C113.046 63.3221 106.048 60.4352 99.8943 60.4352C96.9072 60.4352 95.4303 61.8188 95.4303 64.5465L94.9313 148.688C94.9313 155.095 95.0845 162.565 95.7167 165.832C96.3419 169.098 97.3797 171.766 98.637 173.363C99.8943 174.906 101.365 176.097 103.753 176.629C105.981 177.101 118.255 178.638 118.888 173.961C119.672 168.34 119.699 162.286 126.139 139.588C136.184 104.295 149.25 87.0918 155.403 80.9648C156.501 79.9005 157.725 79.8341 157.659 81.5969C157.379 89.347 156.468 108.66 155.842 125.078C154.179 169.065 162.149 177.194 173.612 177.194C182.34 177.194 194.647 168.499 207.866 146.526C216.122 132.802 224.098 119.397 229.873 109.697C233.831 113.396 238.348 117.388 242.838 121.659C253.296 131.545 256.716 140.965 254.427 149.886C252.697 156.724 246.138 163.756 234.489 156.917C231.097 154.935 229.653 153.398 226.233 151.136C224.411 149.912 221.583 149.566 219.92 150.824C215.523 154.123 213.041 158.295 211.598 163.477C210.247 168.533 215.303 171.167 220.545 173.489C225.036 175.532 234.709 177.321 240.889 177.54C264.971 178.359 284.25 165.925 297.656 133.9C300.077 161.561 310.275 177.228 328.018 177.228C339.913 177.228 351.814 161.873 357.03 146.772C358.5 152.926 360.729 158.261 363.59 162.818C377.281 184.479 403.837 179.835 417.149 161.434C421.294 155.72 421.926 153.678 421.926 153.678C423.868 171.048 437.872 177.161 445.882 177.161C454.889 177.161 464.123 172.897 470.616 158.261C471.401 159.865 472.219 161.374 473.164 162.818C486.822 184.479 513.379 179.835 526.724 161.434C527.323 160.523 527.888 159.771 528.354 159.046L528.766 170.475C528.766 170.475 521.136 177.447 516.459 181.745C495.896 200.618 480.256 214.935 479.098 231.573C477.654 252.828 494.858 260.711 507.917 261.742C521.735 262.847 533.603 255.216 540.881 244.478C547.287 235.058 551.498 214.808 551.186 194.777C551.06 186.741 550.866 176.569 550.68 165.612C557.931 157.263 566.094 146.646 573.571 134.219C581.761 120.714 590.489 102.533 594.946 88.3761C594.946 88.3761 602.577 88.4424 610.68 87.937C613.287 87.7773 614.039 88.3162 613.534 90.1987C612.968 92.4873 603.302 129.821 612.123 154.689C618.184 171.7 631.775 177.194 639.878 177.194C649.324 177.194 658.372 170.036 663.202 159.426C663.8 160.59 664.399 161.747 665.091 162.818C678.749 184.479 705.213 179.802 718.651 161.434C721.698 157.263 723.394 153.678 723.394 153.678C726.281 171.673 740.285 177.228 748.288 177.228C756.671 177.228 764.58 173.808 771.02 158.607C771.273 165.3 771.679 170.762 772.37 172.484C772.776 173.556 775.164 174.873 776.861 175.531C784.518 178.359 792.308 177.008 795.162 176.41C797.171 176.004 798.742 174.434 798.934 170.289C799.493 159.426 799.147 141.184 802.447 127.593C808.002 104.861 813.151 96.0398 815.599 91.6756C816.956 89.2208 818.52 88.8151 818.553 91.3897C818.646 96.6316 818.932 112.019 821.094 132.742C822.637 147.936 824.74 156.944 826.37 159.805C830.953 167.934 836.668 168.313 841.284 168.313C844.238 168.313 850.392 167.495 849.853 162.312C849.574 159.805 850.046 144.198 855.474 121.785C859.054 107.123 864.988 93.9043 867.123 89.0676C867.942 87.2784 868.287 88.662 868.287 88.9414C867.815 99.02 866.81 132.017 870.889 150.038C876.483 174.5 892.583 177.228 898.204 177.228C910.166 177.228 919.998 168.12 923.291 144.138C924.109 138.357 922.913 133.9 919.367 133.9ZM417.369 119.084C416.71 131.764 414.228 142.381 410.277 150.071C403.052 164.042 388.836 168.439 382.582 148.315C378.032 133.779 379.569 113.934 381.485 103.224C384.245 87.3378 391.25 76.1015 402.174 77.1324C413.35 78.237 418.812 92.6465 417.369 119.084ZM526.911 119.27C526.285 131.231 523.179 143.286 519.786 150.071C512.788 164.135 498.152 168.532 492.091 148.315C487.954 134.464 488.925 116.602 490.994 105.36C493.668 90.7306 500.101 77.1324 511.69 77.1324C522.96 77.1324 528.514 89.5062 526.911 119.27ZM529.772 201.024C529.612 222.911 526.193 242.063 518.841 247.651C508.357 255.562 494.26 249.594 497.181 233.648C499.755 219.518 511.969 205.108 529.805 187.492C529.805 187.492 529.866 191.51 529.772 201.024ZM718.905 119.396C718.272 132.555 715.352 142.82 711.746 150.071C704.741 164.135 690.238 168.499 684.051 148.315C680.692 137.292 680.532 118.891 682.954 103.543C685.402 87.9031 692.281 76.1015 703.643 77.1324C714.88 78.2036 720.129 92.6465 718.905 119.396Z" fill="#231E1F"/>
</svg>
