<svg width="40" height="40" viewBox="0 0 40 40" fill="none" xmlns="http://www.w3.org/2000/svg">
<circle cx="20" cy="20" r="19.5" stroke="black"/>
<path d="M22 14.998L20 12L18 14.998H14C13.7348 14.998 13.4804 15.1033 13.2929 15.2909C13.1054 15.4784 13 15.7328 13 15.998L13 24.991C13 25.1223 13.0259 25.2523 13.0761 25.3735C13.1264 25.4948 13.2001 25.605 13.293 25.6977C13.3858 25.7905 13.4961 25.8641 13.6174 25.9142C13.7387 25.9644 13.8687 25.9901 14 25.99H26C26.2652 25.99 26.5196 25.8846 26.7071 25.6971C26.8946 25.5096 27 25.2552 27 24.99V15.997C27 15.7318 26.8946 15.4774 26.7071 15.2899C26.5196 15.1023 26.2652 14.997 26 14.997H22V14.998Z" stroke="black" stroke-linecap="square" stroke-linejoin="round"/>
<path d="M19.7813 16.5094C19.3156 16.5687 18.9203 16.7625 18.5922 17.0922C18.2219 17.4641 18.0313 17.8891 18.0063 18.4062C17.9813 18.9078 18.1578 19.4266 18.4813 19.7969L18.5422 19.8656L18.3844 19.9703C18.0828 20.1719 17.8594 20.3969 17.6485 20.7109C17.2453 21.3141 17.0172 22.1484 17.0094 23.05C17.0078 23.3703 17.011 23.3812 17.1156 23.4594L17.1578 23.4922H20H22.8422L22.8844 23.4594C22.9719 23.3953 22.9922 23.3516 22.9985 23.2141C23.0047 23.0484 22.9735 22.5906 22.9375 22.3437C22.7781 21.2516 22.3266 20.4422 21.6156 19.9703L21.4578 19.8656L21.5188 19.7969C21.8406 19.4281 22.0172 18.9156 21.9938 18.4141C21.9703 17.8937 21.7781 17.4609 21.4078 17.0922C21.1188 16.8031 20.8141 16.6344 20.4219 16.5453C20.2922 16.5156 19.9047 16.4937 19.7813 16.5094ZM20.361 17.0453C20.6406 17.1172 20.8594 17.2437 21.0625 17.4516C21.2641 17.6547 21.3938 17.8859 21.4641 18.1656C21.5016 18.3141 21.5016 18.6859 21.4641 18.8344C21.3922 19.1187 21.2688 19.3391 21.0625 19.5469C20.8485 19.7641 20.625 19.8922 20.3344 19.9641C20.1813 20.0016 19.8281 20.0016 19.6719 19.9641C19.1031 19.8266 18.6781 19.4031 18.536 18.8344C18.4985 18.6859 18.4985 18.3141 18.536 18.1656C18.6078 17.8812 18.736 17.6531 18.9438 17.4437C19.1906 17.1984 19.4203 17.0828 19.8125 17.0094C19.9047 16.9922 20.2453 17.0141 20.361 17.0453ZM19.1156 20.2891C19.4172 20.4375 19.6563 20.4922 20 20.4922C20.3438 20.4922 20.5828 20.4375 20.8844 20.2875L21.0266 20.2187L21.0953 20.2469C21.1328 20.2641 21.2141 20.3062 21.2735 20.3437C21.7797 20.6531 22.1219 21.1391 22.3219 21.8312C22.4063 22.1266 22.4516 22.4094 22.4922 22.9094L22.5 23H20H17.5016L17.5094 22.8859C17.5953 21.6594 17.9625 20.8516 18.6406 20.3984C18.7297 20.3391 18.9485 20.2187 18.9672 20.2187C18.9719 20.2187 19.0391 20.25 19.1156 20.2891Z" fill="black"/>
</svg>
